<?xml version="1.0" encoding="utf-8"?><svg xmlns="http://www.w3.org/2000/svg" xmlns:xlink="http://www.w3.org/1999/xlink" width="1366" height="699" preserveAspectRatio="xMidYMid" viewBox="0 0 1366 699" style="z-index:1;margin-right:-2px;display:block;background-repeat-y:initial;background-repeat-x:initial;background-color:rgb(241, 242, 243);animation-play-state:paused" ><g transform="translate(683,349.5) scale(1,1) translate(-683,-349.5)" style="transform:matrix(1, 0, 0, 1, 0, 0);animation-play-state:paused" ><linearGradient id="lg-0.7781579653964954" x1="0" x2="1" y1="0" y2="0" style="animation-play-state:paused" ><stop stop-color="#014737" offset="0" style="animation-play-state:paused" ></stop>

  
<stop stop-color="#05ab47" offset="1" style="animation-play-state:paused" ></stop></linearGradient>
<path d="M 0 0 L 0 630.914 Q 341.5 405.921 683 387.029 T 1366 134.103 L 1366 0 Z" fill="url(#lg-0.7781579653964954)" opacity="0.4" style="opacity:0.4;animation-play-state:paused" ></path>
<path d="M 0 0 L 0 658.388 Q 341.5 402.401 683 373.014 T 1366 101.309 L 1366 0 Z" fill="url(#lg-0.7781579653964954)" opacity="0.4" style="opacity:0.4;animation-play-state:paused" ></path>
<path d="M 0 0 L 0 645.012 Q 341.5 439.031 683 416.761 T 1366 154.739 L 1366 0 Z" fill="url(#lg-0.7781579653964954)" opacity="0.4" style="opacity:0.4;animation-play-state:paused" ></path>
<path d="M 0 0 L 0 660.952 Q 341.5 366.933 683 347.107 T 1366 68.5109 L 1366 0 Z" fill="url(#lg-0.7781579653964954)" opacity="0.4" style="opacity:0.4;animation-play-state:paused" ></path>
<path d="M 0 0 L 0 643.835 Q 341.5 413.286 683 377.586 T 1366 64.938 L 1366 0 Z" fill="url(#lg-0.7781579653964954)" opacity="0.4" style="opacity:0.4;animation-play-state:paused" ></path></g></svg>